# xmcd CD database file
#
# Track frame offsets:
#	150
#	62489
#	140876
#	162699
#	209123
#	241759
#
# Disc length: 3895 seconds
#
# Revision: 0
# Processed by: cddbd v1.5.2PL0 Copyright (c) Steve Scherf et al.
# Submitted via: CDex 1.51
#
DISCID=5d0f3506
DTITLE=Various Artist - Jazz Ballads 20 - All-Star Jam Sessions CD2
DYEAR=2004
DGENRE=Jazz
TTITLE0=Sentimental Journey - Green, Brown, Homer
TTITLE1=Ballad Medley 1
TTITLE2=Medley
TTITLE3=I Surrender Dear - Clifford, Barris
TTITLE4=Ballad Medley 2
TTITLE5=Ballad Medley 3
EXTD=YEAR: 2004
EXTT0=
EXTT1=
EXTT2=
EXTT3=
EXTT4=
EXTT5=
PLAYORDER=
